<?xml version="1.0" encoding="UTF-8"?>
<svg height="600" width="800" xmlns="http://www.w3.org/2000/svg" xmlns:xlink="http://www.w3.org/1999/xlink">
    <g id="Notes" font-family="'LucidaGrande', 'Lucida Grande', sans-serif" font-size="13">
        <rect fill="white" height="600.0" width="800.0" x="0.0" y="0.0" />
        <g font-size="13">
            <text x="18.0" y="176.0">Small</text>
            <text x="18.0" y="376.0">Medium</text>
            <text x="18.0" y="576.0">Large</text>
        </g>
        <g font-size="9">
            <text x="250.0" y="30.0">Ultralight</text>
            <text x="450.0" y="30.0">Regular</text>
            <text x="650.0" y="30.0">Black</text>
            <text id="template-version" fill="#505050" text-anchor="end" x="785.0" y="575.0">Template v.3.0</text>
            <a href="https://wangchujiang.com/#/app">
                <text fill="#505050" text-anchor="end" x="785.0" y="590.0">https://wangchujiang.com/#/app</text>
            </a>
        </g>
    </g>
    <g id="Guides" stroke="rgb(39, 170, 225)" stroke-width="0.5">
        <path id="Capline-S" d="M18,76 l800,0" />
        <path id="H-reference" d="M85,145.755 L87.685,145.755 L113.369,79.287 L114.052,79.287 L114.052,76 L112.148,76 L85,145.755 Z M95.693,121.536 L130.996,121.536 L130.263,119.313 L96.474,119.313 L95.693,121.536 Z M139.15,145.755 L141.787,145.755 L114.638,76 L113.466,76 L113.466,79.287 L139.15,145.755 Z" stroke="none" />
        <path id="Baseline-S" d="M18,146 l800,0" />
        <path id="left-margin-Ultralight-S" d="M221,56 l0,110" />
        <path id="right-margin-Ultralight-S" d="M309,56 l0,110" />
        <path id="left-margin-Regular-S" d="M421,56 l0,110" />
        <path id="right-margin-Regular-S" d="M509,56 l0,110" />
        <path id="left-margin-Black-S" d="M621,56 l0,110" />
        <path id="right-margin-Black-S" d="M709,56 l0,110" />
        <path id="Capline-M" d="M18,276 l800,0" />
        <path id="Baseline-M" d="M18,346 l800,0" />
        <path id="Capline-L" d="M18,476 l800,0" />
        <path id="Baseline-L" d="M18,546 l800,0" />
    </g>
    <g id="Symbols">
        <g id="Ultralight-S">
            <path d="M289.921,76.013 C289.664,76.013 287.463,76.441 287.206,76.47 L256.617,82.645 L256.617,82.645 C255.816,82.816 255.187,83.102 254.701,83.503 C254.129,83.989 253.786,84.675 253.672,85.475 C253.672,85.647 253.615,85.99 253.615,86.504 L253.615,124.783 C253.615,125.67 253.558,126.556 252.929,127.299 C252.3,128.042 251.585,128.271 250.699,128.443 C250.041,128.586 249.355,128.7 248.698,128.843 C246.182,129.358 244.524,129.701 243.037,130.272 C241.608,130.815 240.55,131.53 239.693,132.416 C238.006,134.189 237.32,136.562 237.548,138.82 C237.749,140.735 238.606,142.565 240.093,143.909 C241.093,144.824 242.323,145.51 243.809,145.824 C245.324,146.139 246.954,146.024 249.327,145.538 C250.584,145.281 251.785,144.881 252.9,144.223 C254.015,143.566 254.958,142.679 255.73,141.622 C256.474,140.535 256.96,139.363 257.217,138.077 C257.503,136.762 257.56,135.59 257.56,134.275 L257.56,101.084 C257.56,99.312 258.075,98.826 259.504,98.483 C259.504,98.483 284.919,93.365 286.119,93.108 C287.777,92.794 288.549,93.251 288.549,94.995 L288.549,117.665 C288.549,118.551 288.549,119.466 287.92,120.209 C287.32,120.953 286.577,121.181 285.69,121.353 L283.689,121.753 C281.173,122.268 279.515,122.611 278.029,123.183 C276.599,123.726 275.542,124.44 274.684,125.327 C272.997,127.099 272.254,129.472 272.483,131.73 C272.683,133.646 273.598,135.475 275.084,136.819 C276.085,137.734 277.343,138.42 278.801,138.706 C280.316,139.02 281.945,138.906 284.318,138.42 C285.576,138.163 286.777,137.791 287.892,137.133 C289.007,136.476 289.95,135.59 290.722,134.532 C291.465,133.446 291.951,132.273 292.208,130.987 C292.494,129.672 292.494,128.5 292.494,127.185 L292.494,78.728 C292.494,76.956 291.579,75.87 289.921,76.013 Z" />
        </g>
        <g id="Regular-S">
            <path d="M489.921,76.013 C489.664,76.013 487.463,76.441 487.206,76.47 L456.617,82.645 L456.617,82.645 C455.816,82.816 455.187,83.102 454.701,83.503 C454.129,83.989 453.786,84.675 453.672,85.475 C453.672,85.647 453.615,85.99 453.615,86.504 L453.615,124.783 C453.615,125.67 453.558,126.556 452.929,127.299 C452.3,128.042 451.585,128.271 450.699,128.443 C450.041,128.586 449.355,128.7 448.698,128.843 C446.182,129.358 444.524,129.701 443.037,130.272 C441.608,130.815 440.55,131.53 439.693,132.416 C438.006,134.189 437.32,136.562 437.548,138.82 C437.749,140.735 438.606,142.565 440.093,143.909 C441.093,144.824 442.323,145.51 443.809,145.824 C445.324,146.139 446.954,146.024 449.327,145.538 C450.585,145.281 451.785,144.881 452.9,144.223 C454.015,143.566 454.958,142.679 455.73,141.622 C456.474,140.535 456.96,139.363 457.217,138.077 C457.503,136.762 457.56,135.59 457.56,134.275 L457.56,101.084 C457.56,99.312 458.075,98.826 459.504,98.483 C459.504,98.483 484.919,93.365 486.119,93.108 C487.777,92.794 488.549,93.251 488.549,94.995 L488.549,117.665 C488.549,118.551 488.549,119.466 487.92,120.209 C487.32,120.953 486.577,121.181 485.69,121.353 L483.689,121.753 C481.173,122.268 479.515,122.611 478.029,123.183 C476.599,123.726 475.542,124.44 474.684,125.327 C472.997,127.099 472.254,129.472 472.483,131.73 C472.683,133.646 473.598,135.475 475.084,136.819 C476.085,137.734 477.343,138.42 478.801,138.706 C480.316,139.02 481.945,138.906 484.318,138.42 C485.576,138.163 486.777,137.791 487.892,137.133 C489.007,136.476 489.95,135.59 490.722,134.532 C491.465,133.446 491.951,132.273 492.208,130.987 C492.494,129.672 492.494,128.5 492.494,127.185 L492.494,78.728 C492.494,76.956 491.579,75.87 489.921,76.013 Z" />
        </g>
        <g id="Black-S">
            <path d="M689.921,76.013 C689.664,76.013 687.463,76.441 687.206,76.47 L656.617,82.645 L656.617,82.645 C655.816,82.816 655.187,83.102 654.701,83.503 C654.129,83.989 653.786,84.675 653.672,85.475 C653.672,85.647 653.615,85.99 653.615,86.504 L653.615,124.783 C653.615,125.67 653.558,126.556 652.929,127.299 C652.3,128.042 651.585,128.271 650.699,128.443 C650.041,128.586 649.355,128.7 648.698,128.843 C646.182,129.358 644.524,129.701 643.037,130.272 C641.608,130.815 640.55,131.53 639.693,132.416 C638.006,134.189 637.32,136.562 637.548,138.82 C637.749,140.735 638.606,142.565 640.093,143.909 C641.093,144.824 642.323,145.51 643.809,145.824 C645.324,146.139 646.954,146.024 649.327,145.538 C650.584,145.281 651.785,144.881 652.9,144.223 C654.015,143.566 654.958,142.679 655.73,141.622 C656.474,140.535 656.96,139.363 657.217,138.077 C657.503,136.762 657.56,135.59 657.56,134.275 L657.56,101.084 C657.56,99.312 658.075,98.826 659.504,98.483 C659.504,98.483 684.919,93.365 686.119,93.108 C687.777,92.794 688.549,93.251 688.549,94.995 L688.549,117.665 C688.549,118.551 688.549,119.466 687.92,120.209 C687.32,120.953 686.577,121.181 685.69,121.353 L683.689,121.753 C681.173,122.268 679.515,122.611 678.029,123.183 C676.599,123.726 675.542,124.44 674.684,125.327 C672.997,127.099 672.254,129.472 672.483,131.73 C672.683,133.646 673.598,135.475 675.084,136.819 C676.085,137.734 677.343,138.42 678.801,138.706 C680.316,139.02 681.945,138.906 684.318,138.42 C685.576,138.163 686.777,137.791 687.892,137.133 C689.007,136.476 689.95,135.59 690.722,134.532 C691.465,133.446 691.951,132.273 692.208,130.987 C692.494,129.672 692.494,128.5 692.494,127.185 L692.494,78.728 C692.494,76.956 691.579,75.87 689.921,76.013 Z" />
        </g>
    </g>
</svg>