<?xml version="1.0" encoding="UTF-8"?>
<svg id="Layer_2" data-name="Layer 2" xmlns="http://www.w3.org/2000/svg" viewBox="0 0 2250 2537.55">
  <g id="Layer_1-2" data-name="Layer 1">
    <path d="M869.09,1003.7c4.57-34.36,33.27-60.41,66.91-61.62,35.45-1.28,67.13,25.37,72,61.62l-.35,549c-.51,39.39-33.56,70.73-71.65,69.54-36.51-1.14-66.81-31.82-67.26-69.54l.35-549Z"/>
    <path d="M70.04,1661.66c-36.64-.17-76.84-42.61-69.06-96.54v-668.45c4.57-34.36,33.27-60.41,66.91-61.62,35.45-1.28,67.13,25.37,72,61.62v668.45c7.74,54.25-33.02,96.72-69.85,96.54Z"/>
    <path d="M354.73,2000.66c-39.06-.63-73.49-38.25-68.28-82.48V556.18c-5.48-44.8,29.3-82.8,68.28-83.43,39.74-.64,76.15,37.71,70.63,83.43v1362c5.24,45.15-30.8,83.12-70.63,82.48Z"/>
    <path d="M572.87,1712.89V396.11c1.66-36.77,31.39-66.08,66.91-67.37,37.34-1.35,70.21,28.66,72,67.37v1316.78c1.56,41.43-32.77,75.22-72,73.81-37.43-1.35-68.47-34.34-66.91-73.81Z"/>
    <path d="M1380.81,567.22c-5.42,2.2-23.56,8.84-24.66,73.98-1.02,60.2-2.04,120.41-3.06,180.61v1197.83c0,378.42-282.93,517.9-474.63,517.9-215.27,0-365.97-137.42-365.97-334.33,0-68.83,14.9-129.51,45.37-181.61,64.88-110.95,206.81-187.71,335.97-198.87,38.91-3.36,128.19-5.2,191.03-47.1,30.6-20.41,46.3-44.57,49.32-49.32,18.39-28.97,24.66-57.4,24.66-73.98,0-248.01,0-496.02,0-744.03v-273.23c-1.3-38.73-9.52-61.35-24.66-67.85-35.64-15.31-109.63,58.68-221.95,221.95-13.96-37.63-92-259.22,24.66-493.23C1036.17,96.82,1211.56,18.79,1257.51,0c50.21,24.57,205.71,108.57,295.94,295.94,111.98,232.54,39.76,450.56,24.66,493.23-122.42-194.04-174.06-231.38-197.29-221.95Z"/>
    <path d="M1666.08,1858.2c-1.82,37.09-32.91,66.5-69.85,66.29-36.64-.21-67.26-29.49-69.07-66.29v-874.66c1.4-37.1,32.15-66.84,69.07-67.05,37.21-.21,68.44,29.66,69.85,67.05v874.66Z"/>
    <path d="M1975.4,1910.92c-1.12,37.6-32.45,67.79-69.85,67.58-37.11-.21-67.94-30.27-69.06-67.58V478.09c.7-37.6,31.67-68.13,69.06-68.34,37.68-.22,69.14,30.44,69.85,68.34v1432.83Z"/>
    <path d="M2180.93,1579.75c-38.24.22-69.97-31.37-69.85-69.85v-526.61c-.53-38.79,31.34-70.85,69.85-70.63,38.22.22,69.6,32.15,69.07,70.63v526.61c.11,38.18-31.12,69.63-69.07,69.85Z"/>
  </g>
</svg>