<?xml version="1.0" encoding="UTF-8"?>
<svg height="600" width="800" xmlns="http://www.w3.org/2000/svg" xmlns:xlink="http://www.w3.org/1999/xlink">
    <g id="Notes" font-family="'LucidaGrande', 'Lucida Grande', sans-serif" font-size="13">
        <rect fill="white" height="600.0" width="800.0" x="0.0" y="0.0" />
        <g font-size="13">
            <text x="18.0" y="176.0">Small</text>
            <text x="18.0" y="376.0">Medium</text>
            <text x="18.0" y="576.0">Large</text>
        </g>
        <g font-size="9">
            <text x="250.0" y="30.0">Ultralight</text>
            <text x="450.0" y="30.0">Regular</text>
            <text x="650.0" y="30.0">Black</text>
            <text id="template-version" fill="#505050" text-anchor="end" x="785.0" y="575.0">Template v.3.0</text>
            <a href="https://wangchujiang.com/#/app">
                <text fill="#505050" text-anchor="end" x="785.0" y="590.0">https://wangchujiang.com/#/app</text>
            </a>
        </g>
    </g>
    <g id="Guides" stroke="rgb(39, 170, 225)" stroke-width="0.5">
        <path id="Capline-S" d="M18,76 l800,0" />
        <path id="H-reference" d="M85,145.755 L87.685,145.755 L113.369,79.287 L114.052,79.287 L114.052,76 L112.148,76 L85,145.755 Z M95.693,121.536 L130.996,121.536 L130.263,119.313 L96.474,119.313 L95.693,121.536 Z M139.15,145.755 L141.787,145.755 L114.638,76 L113.466,76 L113.466,79.287 L139.15,145.755 Z" stroke="none" />
        <path id="Baseline-S" d="M18,146 l800,0" />
        <path id="left-margin-Ultralight-S" d="M220,56 l0,110" />
        <path id="right-margin-Ultralight-S" d="M310,56 l0,110" />
        <path id="left-margin-Regular-S" d="M420,56 l0,110" />
        <path id="right-margin-Regular-S" d="M510,56 l0,110" />
        <path id="left-margin-Black-S" d="M620,56 l0,110" />
        <path id="right-margin-Black-S" d="M710,56 l0,110" />
        <path id="Capline-M" d="M18,276 l800,0" />
        <path id="Baseline-M" d="M18,346 l800,0" />
        <path id="Capline-L" d="M18,476 l800,0" />
        <path id="Baseline-L" d="M18,546 l800,0" />
    </g>
    <g id="Symbols">
        <g id="Ultralight-S">
            <path d="M265,76 C245.679,76 230,91.679 230,111 C230,130.321 245.679,146 265,146 C284.321,146 300,130.321 300,111 C300,91.679 284.321,76 265,76 Z M279.212,127.498 L279.212,127.498 C278.619,127.498 278.252,127.315 277.702,126.99 C268.895,121.683 258.649,121.458 248.53,123.532 C247.98,123.673 247.26,123.899 246.851,123.899 C245.482,123.899 244.621,122.812 244.621,121.669 C244.621,120.526 245.482,119.524 246.54,119.298 C258.099,116.744 269.911,116.97 279.988,122.996 C280.849,123.546 281.357,124.04 281.357,125.325 C281.357,126.609 280.355,127.498 279.212,127.498 Z M283.008,118.24 C282.274,118.24 281.78,117.915 281.272,117.647 C272.452,112.425 259.298,110.323 247.599,113.498 C246.921,113.681 246.554,113.865 245.919,113.865 C244.409,113.865 243.181,112.637 243.181,111.127 C243.181,109.617 243.915,108.615 245.369,108.206 C249.292,107.105 253.3,106.286 259.171,106.286 C268.331,106.286 277.179,108.558 284.151,112.708 C285.294,113.385 285.746,114.26 285.746,115.488 C285.746,117.012 284.546,118.24 283.008,118.24 Z M287.383,107.486 L287.383,107.486 C286.649,107.486 286.198,107.302 285.562,106.935 C275.514,100.938 257.548,99.498 245.919,102.744 C245.411,102.885 244.776,103.111 244.099,103.111 C242.236,103.111 240.81,101.657 240.81,99.78 C240.81,97.903 241.996,96.774 243.266,96.407 C248.234,94.954 253.794,94.262 259.849,94.262 C270.151,94.262 280.948,96.407 288.837,101.008 C289.938,101.643 290.657,102.518 290.657,104.198 C290.657,105.877 289.105,107.486 287.383,107.486 Z" />
        </g>
        <g id="Regular-S">
            <path d="M465,76 C445.679,76 430,91.679 430,111 C430,130.321 445.679,146 465,146 C484.321,146 500,130.321 500,111 C500,91.679 484.321,76 465,76 Z M479.212,127.498 L479.212,127.498 C478.619,127.498 478.252,127.315 477.702,126.99 C468.895,121.683 458.649,121.458 448.53,123.532 C447.98,123.673 447.26,123.899 446.851,123.899 C445.482,123.899 444.621,122.812 444.621,121.669 C444.621,120.526 445.482,119.524 446.54,119.298 C458.099,116.744 469.911,116.97 479.988,122.996 C480.849,123.546 481.357,124.04 481.357,125.325 C481.357,126.609 480.355,127.498 479.212,127.498 Z M483.008,118.24 C482.274,118.24 481.78,117.915 481.272,117.647 C472.452,112.425 459.298,110.323 447.599,113.498 C446.921,113.681 446.554,113.865 445.919,113.865 C444.409,113.865 443.181,112.637 443.181,111.127 C443.181,109.617 443.915,108.615 445.369,108.206 C449.292,107.105 453.3,106.286 459.171,106.286 C468.331,106.286 477.179,108.558 484.151,112.708 C485.294,113.385 485.746,114.26 485.746,115.488 C485.746,117.012 484.546,118.24 483.008,118.24 Z M487.383,107.486 L487.383,107.486 C486.649,107.486 486.198,107.302 485.562,106.935 C475.514,100.938 457.548,99.498 445.919,102.744 C445.411,102.885 444.776,103.111 444.099,103.111 C442.236,103.111 440.81,101.657 440.81,99.78 C440.81,97.903 441.996,96.774 443.266,96.407 C448.234,94.954 453.794,94.262 459.849,94.262 C470.151,94.262 480.948,96.407 488.837,101.008 C489.938,101.643 490.657,102.518 490.657,104.198 C490.657,105.877 489.105,107.486 487.383,107.486 Z" />
        </g>
        <g id="Black-S">
            <path d="M665,76 C645.679,76 630,91.679 630,111 C630,130.321 645.679,146 665,146 C684.321,146 700,130.321 700,111 C700,91.679 684.321,76 665,76 Z M679.212,127.498 L679.212,127.498 C678.619,127.498 678.252,127.315 677.702,126.99 C668.895,121.683 658.649,121.458 648.53,123.532 C647.98,123.673 647.26,123.899 646.851,123.899 C645.482,123.899 644.621,122.812 644.621,121.669 C644.621,120.526 645.482,119.524 646.54,119.298 C658.099,116.744 669.911,116.97 679.988,122.996 C680.849,123.546 681.357,124.04 681.357,125.325 C681.357,126.609 680.355,127.498 679.212,127.498 Z M683.008,118.24 C682.274,118.24 681.78,117.915 681.272,117.647 C672.452,112.425 659.298,110.323 647.599,113.498 C646.921,113.681 646.554,113.865 645.919,113.865 C644.409,113.865 643.181,112.637 643.181,111.127 C643.181,109.617 643.915,108.615 645.369,108.206 C649.292,107.105 653.3,106.286 659.171,106.286 C668.331,106.286 677.179,108.558 684.151,112.708 C685.294,113.385 685.746,114.26 685.746,115.488 C685.746,117.012 684.546,118.24 683.008,118.24 Z M687.383,107.486 L687.383,107.486 C686.649,107.486 686.198,107.302 685.562,106.935 C675.514,100.938 657.548,99.498 645.919,102.744 C645.411,102.885 644.776,103.111 644.099,103.111 C642.236,103.111 640.81,101.657 640.81,99.78 C640.81,97.903 641.996,96.774 643.266,96.407 C648.234,94.954 653.794,94.262 659.849,94.262 C670.151,94.262 680.948,96.407 688.837,101.008 C689.938,101.643 690.657,102.518 690.657,104.198 C690.657,105.877 689.105,107.486 687.383,107.486 Z" />
        </g>
    </g>
</svg>