<?xml version="1.0" encoding="UTF-8"?>
<svg height="600" width="800" xmlns="http://www.w3.org/2000/svg" xmlns:xlink="http://www.w3.org/1999/xlink">
    <g id="Notes" font-family="'LucidaGrande', 'Lucida Grande', sans-serif" font-size="13">
        <rect fill="white" height="600.0" width="800.0" x="0.0" y="0.0" />
        <g font-size="13">
            <text x="18.0" y="176.0">Small</text>
            <text x="18.0" y="376.0">Medium</text>
            <text x="18.0" y="576.0">Large</text>
        </g>
        <g font-size="9">
            <text x="250.0" y="30.0">Ultralight</text>
            <text x="450.0" y="30.0">Regular</text>
            <text x="650.0" y="30.0">Black</text>
            <text id="template-version" fill="#505050" text-anchor="end" x="785.0" y="575.0">Template v.3.0</text>
            <a href="https://wangchujiang.com/#/app">
                <text fill="#505050" text-anchor="end" x="785.0" y="590.0">https://wangchujiang.com/#/app</text>
            </a>
        </g>
    </g>
    <g id="Guides" stroke="rgb(39, 170, 225)" stroke-width="0.5">
        <path id="Capline-S" d="M18,76 l800,0" />
        <path id="H-reference" d="M85,145.755 L87.685,145.755 L113.369,79.287 L114.052,79.287 L114.052,76 L112.148,76 L85,145.755 Z M95.693,121.536 L130.996,121.536 L130.263,119.313 L96.474,119.313 L95.693,121.536 Z M139.15,145.755 L141.787,145.755 L114.638,76 L113.466,76 L113.466,79.287 L139.15,145.755 Z" stroke="none" />
        <path id="Baseline-S" d="M18,146 l800,0" />
        <path id="left-margin-Ultralight-S" d="M211,56 l0,110" />
        <path id="right-margin-Ultralight-S" d="M319,56 l0,110" />
        <path id="left-margin-Regular-S" d="M411,56 l0,110" />
        <path id="right-margin-Regular-S" d="M519,56 l0,110" />
        <path id="left-margin-Black-S" d="M611,56 l0,110" />
        <path id="right-margin-Black-S" d="M719,56 l0,110" />
        <path id="Capline-M" d="M18,276 l800,0" />
        <path id="Baseline-M" d="M18,346 l800,0" />
        <path id="Capline-L" d="M18,476 l800,0" />
        <path id="Baseline-L" d="M18,546 l800,0" />
    </g>
    <g id="Symbols">
        <g id="Ultralight-S">
            <path d="M240.671,120.409 L239.634,117.592 C239.634,117.592 237.949,119.47 235.421,119.47 C233.185,119.47 231.597,117.527 231.597,114.418 C231.597,110.434 233.606,109.01 235.584,109.01 C238.436,109.01 239.343,110.856 240.121,113.22 L241.157,116.458 C242.194,119.599 244.139,122.125 249.746,122.125 C253.765,122.125 256.488,120.894 256.488,117.656 C256.488,115.033 254.996,113.672 252.209,113.025 L250.134,112.572 C248.709,112.248 248.287,111.665 248.287,110.694 C248.287,109.592 249.162,108.944 250.587,108.944 C252.143,108.944 252.985,109.527 253.115,110.919 L256.356,110.531 C256.096,107.617 254.088,106.418 250.781,106.418 C247.865,106.418 245.013,107.52 245.013,111.05 C245.013,113.252 246.082,114.644 248.772,115.291 L250.976,115.809 C252.629,116.197 253.18,116.877 253.18,117.816 C253.18,119.015 252.013,119.5 249.809,119.5 C246.536,119.5 245.175,117.784 244.397,115.419 L243.328,112.181 C241.967,107.972 239.795,106.417 235.485,106.417 C230.721,106.417 228.193,109.428 228.193,114.546 C228.193,119.664 230.721,122.124 235.259,122.124 C238.92,122.124 240.671,120.408 240.671,120.408 Z M226.802,118.887 C226.478,118.984 226.154,119.049 225.733,119.049 C224.956,119.049 224.404,118.693 224.404,117.754 L224.404,100.103 L221,100.103 L221,118.563 C221,120.992 222.685,121.996 224.663,121.996 C225.311,121.996 225.927,121.898 226.705,121.704 L226.802,118.887 Z M267.797,118.368 C266.954,118.951 266.242,119.243 265.269,119.243 C264.038,119.243 263.357,118.595 263.357,117.009 L263.357,109.429 L267.83,109.429 L267.83,106.774 L263.39,106.774 L263.39,103.179 L259.954,103.599 L259.954,106.773 L257.783,106.773 L257.783,109.428 L259.954,109.428 L259.954,117.719 C259.954,120.7 261.671,122.124 264.459,122.124 C265.982,122.124 267.343,121.832 268.413,121.218 L267.797,118.368 Z M270.754,119.535 C270.754,120.863 271.79,121.932 273.12,121.932 C274.514,121.932 275.551,120.863 275.551,119.535 C275.551,118.206 274.514,117.139 273.12,117.139 C271.726,117.139 270.754,118.175 270.754,119.535 Z M279.074,109.431 L279.074,121.737 L282.477,121.737 L282.477,109.429 L286.301,109.429 L286.301,106.774 L282.477,106.774 L282.477,105.413 C282.477,103.374 283.352,102.725 284.778,102.725 C285.782,102.725 286.462,102.952 287.241,103.372 L287.792,100.523 C286.885,100.102 285.816,99.875 284.519,99.875 C281.667,99.875 279.074,101.235 279.074,105.283 L279.074,106.773 L276.902,106.773 L276.902,109.428 L279.074,109.428 Z M299.861,109.722 C299.472,107.293 297.884,106.418 295.809,106.418 C293.734,106.418 291.953,107.357 291.174,109.656 L290.753,106.774 L287.998,106.774 L287.998,121.737 L291.401,121.737 L291.401,113.284 C291.401,110.401 292.893,109.3 294.481,109.3 C296.069,109.3 296.814,110.402 296.814,112.182 L296.814,121.737 L300.185,121.737 L300.185,113.252 C300.185,110.402 301.708,109.3 303.296,109.3 C304.884,109.3 305.597,110.402 305.597,112.182 L305.597,121.737 L309,121.737 L309,110.985 C309,107.779 307.12,106.418 304.625,106.418 C302.518,106.418 300.638,107.357 299.861,109.722 L299.861,109.722 Z" />
        </g>
        <g id="Regular-S">
            <path d="M440.671,120.409 L439.634,117.592 C439.634,117.592 437.949,119.47 435.421,119.47 C433.185,119.47 431.597,117.527 431.597,114.418 C431.597,110.434 433.606,109.01 435.584,109.01 C438.436,109.01 439.343,110.856 440.121,113.22 L441.157,116.458 C442.194,119.599 444.139,122.125 449.746,122.125 C453.765,122.125 456.488,120.894 456.488,117.656 C456.488,115.033 454.996,113.672 452.209,113.025 L450.134,112.572 C448.709,112.248 448.287,111.665 448.287,110.694 C448.287,109.592 449.162,108.944 450.587,108.944 C452.143,108.944 452.985,109.527 453.115,110.919 L456.356,110.531 C456.096,107.617 454.088,106.418 450.781,106.418 C447.865,106.418 445.013,107.52 445.013,111.05 C445.013,113.252 446.082,114.644 448.772,115.291 L450.976,115.809 C452.629,116.197 453.18,116.877 453.18,117.816 C453.18,119.015 452.013,119.5 449.809,119.5 C446.536,119.5 445.175,117.784 444.397,115.419 L443.328,112.181 C441.967,107.972 439.795,106.417 435.485,106.417 C430.721,106.417 428.193,109.428 428.193,114.546 C428.193,119.664 430.721,122.124 435.259,122.124 C438.92,122.124 440.671,120.408 440.671,120.408 Z M426.802,118.887 C426.478,118.984 426.154,119.049 425.733,119.049 C424.956,119.049 424.404,118.693 424.404,117.754 L424.404,100.103 L421,100.103 L421,118.563 C421,120.992 422.685,121.996 424.663,121.996 C425.311,121.996 425.927,121.898 426.705,121.704 L426.802,118.887 Z M467.797,118.368 C466.954,118.951 466.242,119.243 465.269,119.243 C464.038,119.243 463.357,118.595 463.357,117.009 L463.357,109.429 L467.83,109.429 L467.83,106.774 L463.39,106.774 L463.39,103.179 L459.954,103.599 L459.954,106.773 L457.783,106.773 L457.783,109.428 L459.954,109.428 L459.954,117.719 C459.954,120.7 461.671,122.124 464.459,122.124 C465.982,122.124 467.343,121.832 468.413,121.218 L467.797,118.368 Z M470.754,119.535 C470.754,120.863 471.79,121.932 473.12,121.932 C474.514,121.932 475.551,120.863 475.551,119.535 C475.551,118.206 474.514,117.139 473.12,117.139 C471.726,117.139 470.754,118.175 470.754,119.535 Z M479.074,109.431 L479.074,121.737 L482.477,121.737 L482.477,109.429 L486.301,109.429 L486.301,106.774 L482.477,106.774 L482.477,105.413 C482.477,103.374 483.352,102.725 484.778,102.725 C485.782,102.725 486.462,102.952 487.241,103.372 L487.792,100.523 C486.885,100.102 485.816,99.875 484.519,99.875 C481.667,99.875 479.074,101.235 479.074,105.283 L479.074,106.773 L476.902,106.773 L476.902,109.428 L479.074,109.428 Z M499.861,109.722 C499.472,107.293 497.884,106.418 495.809,106.418 C493.734,106.418 491.953,107.357 491.174,109.656 L490.753,106.774 L487.998,106.774 L487.998,121.737 L491.401,121.737 L491.401,113.284 C491.401,110.401 492.893,109.3 494.481,109.3 C496.069,109.3 496.814,110.402 496.814,112.182 L496.814,121.737 L500.185,121.737 L500.185,113.252 C500.185,110.402 501.708,109.3 503.296,109.3 C504.884,109.3 505.597,110.402 505.597,112.182 L505.597,121.737 L509,121.737 L509,110.985 C509,107.779 507.12,106.418 504.625,106.418 C502.518,106.418 500.638,107.357 499.861,109.722 L499.861,109.722 Z" />
        </g>
        <g id="Black-S">
            <path d="M640.671,120.409 L639.634,117.592 C639.634,117.592 637.949,119.47 635.421,119.47 C633.185,119.47 631.597,117.527 631.597,114.418 C631.597,110.434 633.606,109.01 635.584,109.01 C638.436,109.01 639.343,110.856 640.121,113.22 L641.157,116.458 C642.194,119.599 644.139,122.125 649.746,122.125 C653.765,122.125 656.488,120.894 656.488,117.656 C656.488,115.033 654.996,113.672 652.209,113.025 L650.134,112.572 C648.709,112.248 648.287,111.665 648.287,110.694 C648.287,109.592 649.162,108.944 650.587,108.944 C652.143,108.944 652.985,109.527 653.115,110.919 L656.356,110.531 C656.096,107.617 654.088,106.418 650.781,106.418 C647.865,106.418 645.013,107.52 645.013,111.05 C645.013,113.252 646.082,114.644 648.772,115.291 L650.976,115.809 C652.629,116.197 653.18,116.877 653.18,117.816 C653.18,119.015 652.013,119.5 649.809,119.5 C646.536,119.5 645.175,117.784 644.397,115.419 L643.328,112.181 C641.967,107.972 639.795,106.417 635.485,106.417 C630.721,106.417 628.193,109.428 628.193,114.546 C628.193,119.664 630.721,122.124 635.259,122.124 C638.92,122.124 640.671,120.408 640.671,120.408 Z M626.802,118.887 C626.478,118.984 626.154,119.049 625.733,119.049 C624.956,119.049 624.404,118.693 624.404,117.754 L624.404,100.103 L621,100.103 L621,118.563 C621,120.992 622.685,121.996 624.663,121.996 C625.311,121.996 625.927,121.898 626.705,121.704 L626.802,118.887 Z M667.797,118.368 C666.954,118.951 666.242,119.243 665.269,119.243 C664.038,119.243 663.357,118.595 663.357,117.009 L663.357,109.429 L667.83,109.429 L667.83,106.774 L663.39,106.774 L663.39,103.179 L659.954,103.599 L659.954,106.773 L657.783,106.773 L657.783,109.428 L659.954,109.428 L659.954,117.719 C659.954,120.7 661.671,122.124 664.459,122.124 C665.982,122.124 667.343,121.832 668.413,121.218 L667.797,118.368 Z M670.754,119.535 C670.754,120.863 671.79,121.932 673.12,121.932 C674.514,121.932 675.551,120.863 675.551,119.535 C675.551,118.206 674.514,117.139 673.12,117.139 C671.726,117.139 670.754,118.175 670.754,119.535 Z M679.074,109.431 L679.074,121.737 L682.477,121.737 L682.477,109.429 L686.301,109.429 L686.301,106.774 L682.477,106.774 L682.477,105.413 C682.477,103.374 683.352,102.725 684.778,102.725 C685.782,102.725 686.462,102.952 687.241,103.372 L687.792,100.523 C686.885,100.102 685.816,99.875 684.519,99.875 C681.667,99.875 679.074,101.235 679.074,105.283 L679.074,106.773 L676.902,106.773 L676.902,109.428 L679.074,109.428 Z M699.861,109.722 C699.472,107.293 697.884,106.418 695.809,106.418 C693.734,106.418 691.953,107.357 691.174,109.656 L690.753,106.774 L687.998,106.774 L687.998,121.737 L691.401,121.737 L691.401,113.284 C691.401,110.401 692.893,109.3 694.481,109.3 C696.069,109.3 696.814,110.402 696.814,112.182 L696.814,121.737 L700.185,121.737 L700.185,113.252 C700.185,110.402 701.708,109.3 703.296,109.3 C704.884,109.3 705.597,110.402 705.597,112.182 L705.597,121.737 L709,121.737 L709,110.985 C709,107.779 707.12,106.418 704.625,106.418 C702.518,106.418 700.638,107.357 699.861,109.722 L699.861,109.722 Z" />
        </g>
    </g>
</svg>