<?xml version="1.0" encoding="UTF-8"?>
<svg height="600" width="800" xmlns="http://www.w3.org/2000/svg" xmlns:xlink="http://www.w3.org/1999/xlink">
    <g id="Notes" font-family="'LucidaGrande', 'Lucida Grande', sans-serif" font-size="13">
        <rect fill="white" height="600.0" width="800.0" x="0.0" y="0.0" />
        <g font-size="13">
            <text x="18.0" y="176.0">Small</text>
            <text x="18.0" y="376.0">Medium</text>
            <text x="18.0" y="576.0">Large</text>
        </g>
        <g font-size="9">
            <text x="250.0" y="30.0">Ultralight</text>
            <text x="450.0" y="30.0">Regular</text>
            <text x="650.0" y="30.0">Black</text>
            <text id="template-version" fill="#505050" text-anchor="end" x="785.0" y="575.0">Template v.3.0</text>
            <a href="https://wangchujiang.com/#/app">
                <text fill="#505050" text-anchor="end" x="785.0" y="590.0">https://wangchujiang.com/#/app</text>
            </a>
        </g>
    </g>
    <g id="Guides" stroke="rgb(39, 170, 225)" stroke-width="0.5">
        <path id="Capline-S" d="M18,76 l800,0" />
        <path id="H-reference" d="M85,145.755 L87.685,145.755 L113.369,79.287 L114.052,79.287 L114.052,76 L112.148,76 L85,145.755 Z M95.693,121.536 L130.996,121.536 L130.263,119.313 L96.474,119.313 L95.693,121.536 Z M139.15,145.755 L141.787,145.755 L114.638,76 L113.466,76 L113.466,79.287 L139.15,145.755 Z" stroke="none" />
        <path id="Baseline-S" d="M18,146 l800,0" />
        <path id="left-margin-Ultralight-S" d="M221,56 l0,110" />
        <path id="right-margin-Ultralight-S" d="M309,56 l0,110" />
        <path id="left-margin-Regular-S" d="M421,56 l0,110" />
        <path id="right-margin-Regular-S" d="M509,56 l0,110" />
        <path id="left-margin-Black-S" d="M621,56 l0,110" />
        <path id="right-margin-Black-S" d="M709,56 l0,110" />
        <path id="Capline-M" d="M18,276 l800,0" />
        <path id="Baseline-M" d="M18,346 l800,0" />
        <path id="Capline-L" d="M18,476 l800,0" />
        <path id="Baseline-L" d="M18,546 l800,0" />
    </g>
    <g id="Symbols">
        <g id="Ultralight-S">
            <path d="M270.345,76 C269.077,76.518 264.24,78.671 261.502,84.164 C258.285,90.619 260.437,96.732 260.822,97.77 C263.92,93.266 265.961,91.225 266.944,91.647 C267.361,91.827 267.588,92.451 267.624,93.519 C267.624,96.031 267.624,98.544 267.624,101.056 C267.624,107.898 267.624,114.739 267.624,121.581 C267.624,122.038 267.45,122.823 266.944,123.622 C266.86,123.753 266.427,124.419 265.583,124.982 C263.85,126.138 261.388,126.189 260.315,126.281 C256.752,126.59 252.838,128.707 251.048,131.767 C250.208,133.205 249.797,134.879 249.797,136.777 C249.797,142.209 253.953,146 259.891,146 C265.178,146 272.981,142.152 272.981,131.713 L272.981,98.67 C273.009,97.01 273.038,95.349 273.066,93.688 C273.096,91.891 273.596,91.708 273.746,91.647 C274.386,91.387 275.811,92.417 279.187,97.77 C279.604,96.593 281.596,90.579 278.507,84.164 C276.018,78.995 271.729,76.678 270.345,76 Z" />
        </g>
        <g id="Regular-S">
            <path d="M470.345,76 C469.077,76.518 464.24,78.671 461.502,84.164 C458.285,90.619 460.437,96.732 460.822,97.77 C463.92,93.266 465.961,91.225 466.944,91.647 C467.361,91.827 467.588,92.451 467.624,93.519 C467.624,96.031 467.624,98.544 467.624,101.056 C467.624,107.898 467.624,114.739 467.624,121.581 C467.624,122.038 467.45,122.823 466.944,123.622 C466.86,123.753 466.427,124.419 465.583,124.982 C463.85,126.138 461.388,126.189 460.315,126.281 C456.752,126.59 452.838,128.707 451.048,131.767 C450.208,133.205 449.797,134.879 449.797,136.777 C449.797,142.209 453.953,146 459.891,146 C465.178,146 472.981,142.152 472.981,131.713 L472.981,98.67 C473.009,97.01 473.038,95.349 473.066,93.688 C473.096,91.891 473.596,91.708 473.746,91.647 C474.386,91.387 475.811,92.417 479.187,97.77 C479.604,96.593 481.596,90.579 478.507,84.164 C476.018,78.995 471.729,76.678 470.345,76 Z" />
        </g>
        <g id="Black-S">
            <path d="M670.345,76 C669.077,76.518 664.24,78.671 661.502,84.164 C658.285,90.619 660.437,96.732 660.822,97.77 C663.92,93.266 665.961,91.225 666.944,91.647 C667.361,91.827 667.588,92.451 667.624,93.519 C667.624,96.031 667.624,98.544 667.624,101.056 C667.624,107.898 667.624,114.739 667.624,121.581 C667.624,122.038 667.451,122.823 666.944,123.622 C666.86,123.753 666.427,124.419 665.583,124.982 C663.85,126.138 661.388,126.189 660.315,126.281 C656.752,126.59 652.838,128.707 651.048,131.767 C650.208,133.205 649.797,134.879 649.797,136.777 C649.797,142.209 653.953,146 659.891,146 C665.178,146 672.981,142.152 672.981,131.713 L672.981,98.67 C673.009,97.01 673.038,95.349 673.066,93.688 C673.096,91.891 673.596,91.708 673.746,91.647 C674.386,91.387 675.811,92.417 679.187,97.77 C679.604,96.593 681.596,90.579 678.507,84.164 C676.018,78.995 671.729,76.678 670.345,76 Z" />
        </g>
    </g>
</svg>