<?xml version="1.0" encoding="UTF-8"?>
<svg height="600" width="800" xmlns="http://www.w3.org/2000/svg" xmlns:xlink="http://www.w3.org/1999/xlink">
    <g id="Notes" font-family="'LucidaGrande', 'Lucida Grande', sans-serif" font-size="13">
        <rect fill="white" height="600.0" width="800.0" x="0.0" y="0.0" />
        <g font-size="13">
            <text x="18.0" y="176.0">Small</text>
            <text x="18.0" y="376.0">Medium</text>
            <text x="18.0" y="576.0">Large</text>
        </g>
        <g font-size="9">
            <text x="250.0" y="30.0">Ultralight</text>
            <text x="450.0" y="30.0">Regular</text>
            <text x="650.0" y="30.0">Black</text>
            <text id="template-version" fill="#505050" text-anchor="end" x="785.0" y="575.0">Template v.3.0</text>
            <a href="https://wangchujiang.com/#/app">
                <text fill="#505050" text-anchor="end" x="785.0" y="590.0">https://wangchujiang.com/#/app</text>
            </a>
        </g>
    </g>
    <g id="Guides" stroke="rgb(39, 170, 225)" stroke-width="0.5">
        <path id="Capline-S" d="M18,76 l800,0" />
        <path id="H-reference" d="M85,145.755 L87.685,145.755 L113.369,79.287 L114.052,79.287 L114.052,76 L112.148,76 L85,145.755 Z M95.693,121.536 L130.996,121.536 L130.263,119.313 L96.474,119.313 L95.693,121.536 Z M139.15,145.755 L141.787,145.755 L114.638,76 L113.466,76 L113.466,79.287 L139.15,145.755 Z" stroke="none" />
        <path id="Baseline-S" d="M18,146 l800,0" />
        <path id="left-margin-Ultralight-S" d="M221,56 l0,110" />
        <path id="right-margin-Ultralight-S" d="M309,56 l0,110" />
        <path id="left-margin-Regular-S" d="M421,56 l0,110" />
        <path id="right-margin-Regular-S" d="M509,56 l0,110" />
        <path id="left-margin-Black-S" d="M621,56 l0,110" />
        <path id="right-margin-Black-S" d="M709,56 l0,110" />
        <path id="Capline-M" d="M18,276 l800,0" />
        <path id="Baseline-M" d="M18,346 l800,0" />
        <path id="Capline-L" d="M18,476 l800,0" />
        <path id="Baseline-L" d="M18,546 l800,0" />
    </g>
    <g id="Symbols">
        <g id="Ultralight-S">
            <path d="M280.059,128.464 C279.816,128.464 279.573,128.561 279.379,128.706 C278.942,129.095 278.893,129.727 279.282,130.164 C279.67,130.601 280.302,130.65 280.739,130.261 C280.933,130.067 281.079,129.824 281.079,129.581 C281.079,129.581 281.079,129.532 281.079,129.484 C281.079,128.901 280.642,128.464 280.059,128.464 Z" />
            <path d="M287.346,108.887 C287.054,109.324 287.151,109.956 287.637,110.247 L287.637,110.247 C288.123,110.587 288.754,110.441 289.046,109.956 C289.192,109.713 289.24,109.47 289.192,109.178 C289.143,108.887 288.949,108.693 288.754,108.547 C288.609,108.45 288.414,108.401 288.22,108.401 C287.88,108.401 287.54,108.595 287.346,108.887 Z" />
            <path d="M289.094,98.588 C289.24,98.346 289.289,98.103 289.24,97.811 C289.192,97.52 288.997,97.325 288.803,97.18 C288.657,97.083 288.463,97.034 288.269,97.034 C287.929,97.034 287.588,97.228 287.394,97.52 C287.103,97.957 287.2,98.588 287.686,98.929 L287.686,98.929 C288.171,99.269 288.803,99.123 289.094,98.637 Z" />
            <path d="M274.958,120.788 C275.104,120.885 275.298,120.934 275.493,120.934 C275.833,120.934 276.173,120.74 276.367,120.448 C276.659,119.963 276.513,119.331 276.027,119.04 C275.541,118.748 274.91,118.894 274.618,119.38 C274.473,119.622 274.424,119.914 274.521,120.157 C274.57,120.4 274.764,120.643 275.007,120.788 Z" />
            <path d="M287.637,123.071 L287.637,123.071 C288.123,123.412 288.754,123.266 289.046,122.78 C289.192,122.537 289.24,122.294 289.192,122.003 C289.143,121.711 288.949,121.517 288.754,121.371 C288.609,121.274 288.414,121.226 288.22,121.226 C287.88,121.226 287.54,121.42 287.346,121.711 L287.346,121.711 C287.054,122.149 287.151,122.78 287.637,123.12 Z" />
            <path d="M266.214,76 L266.214,93.974 C267.575,94.071 269.275,94.314 271.072,95.091 C271.655,95.091 274.133,94.994 275.881,93.002 C275.201,92.031 275.153,90.719 275.833,89.699 C276.367,88.824 277.339,88.29 278.359,88.339 C278.942,88.339 279.476,88.484 279.962,88.776 C280.642,89.213 281.128,89.893 281.273,90.622 C281.468,91.399 281.273,92.176 280.885,92.856 C280.35,93.731 279.379,94.265 278.359,94.217 C278.067,94.217 277.776,94.217 277.484,94.071 C276.319,95.431 274.91,96.16 273.695,96.548 C274.667,97.277 275.541,98.2 276.27,99.269 C277.047,99.074 277.873,99.22 278.553,99.657 C279.962,100.532 280.35,102.378 279.476,103.786 C278.942,104.661 277.97,105.195 276.95,105.195 C276.367,105.195 275.833,105.049 275.347,104.709 C273.987,103.835 273.55,101.989 274.424,100.629 C274.473,100.532 274.521,100.434 274.618,100.386 C273.501,98.88 272.092,97.714 270.441,96.985 C270.441,96.985 270.441,96.985 270.441,96.985 C268.886,96.305 267.38,96.014 266.214,95.965 L266.214,146 L295.847,128.998 L295.847,93.002 L266.214,76 Z M283.022,129.727 C282.974,130.504 282.585,131.232 282.002,131.767 C281.468,132.253 280.788,132.495 280.059,132.495 C279.282,132.495 278.553,132.204 277.97,131.621 C277.096,131.961 275.59,132.447 274.57,132.447 C273.55,132.447 274.473,132.447 274.424,132.447 C273.452,132.398 272.87,131.961 272.335,131.621 C271.558,131.087 270.829,130.601 268.255,131.281 C267.089,131.815 266.312,131.864 266.214,131.864 L266.214,129.921 C266.457,129.872 266.895,129.775 267.477,129.532 C267.526,129.532 267.575,129.484 267.672,129.435 C269.275,128.658 271.801,126.763 273.793,122.294 C273.258,121.906 272.821,121.274 272.675,120.643 C272.481,119.865 272.578,119.088 273.015,118.408 C273.55,117.534 274.521,116.951 275.59,116.951 C276.124,116.951 276.659,117.096 277.096,117.388 C278.505,118.214 278.942,120.06 278.116,121.468 C277.582,122.343 276.659,122.877 275.687,122.926 C274.424,125.84 272.967,127.832 271.509,129.144 C272.335,129.289 272.967,129.678 273.501,130.018 C273.938,130.31 274.181,130.455 274.57,130.504 C275.104,130.504 276.221,130.212 277.144,129.872 C276.999,128.901 277.387,127.881 278.164,127.249 C278.164,127.249 278.164,127.249 278.164,127.249 C279.427,126.18 281.273,126.326 282.342,127.589 C282.876,128.172 283.119,128.949 283.071,129.775 Z M288.026,106.507 C288.074,106.507 288.123,106.507 288.22,106.507 C288.803,106.507 289.337,106.652 289.823,106.944 C290.503,107.381 290.989,108.061 291.135,108.79 C291.329,109.567 291.135,110.344 290.746,111.024 C290.212,111.899 289.24,112.433 288.22,112.384 C287.588,112.384 287.006,112.19 286.471,111.85 C286.034,111.51 285.645,111.073 285.451,110.587 C284.382,110.781 283.799,111.121 283.071,111.607 C282.488,111.996 281.905,112.384 281.031,112.676 C283.217,114.279 286.18,117.339 287.443,119.38 C288.22,119.185 289.094,119.282 289.774,119.72 C290.455,120.157 290.94,120.837 291.086,121.566 C291.28,122.343 291.086,123.12 290.697,123.8 C290.163,124.675 289.192,125.209 288.171,125.16 C287.588,125.16 287.054,125.015 286.568,124.723 C286.52,124.723 286.471,124.675 286.423,124.626 C285.16,123.703 284.771,121.954 285.645,120.594 C285.645,120.497 285.743,120.448 285.791,120.4 C284.48,118.165 279.865,113.745 278.602,113.453 C276.95,113.065 275.978,113.065 274.764,113.113 C274.084,113.113 273.258,113.162 272.238,113.113 C270.732,113.016 269.906,112.093 269.178,111.267 C268.4,110.393 267.672,109.616 266.069,109.47 L266.069,107.527 C268.595,107.721 269.761,108.984 270.635,109.956 C271.315,110.684 271.655,111.121 272.335,111.121 C273.258,111.17 273.987,111.121 274.667,111.121 C275.493,111.121 276.27,111.073 277.242,111.17 C280.01,111.17 280.933,110.539 281.905,109.858 C282.682,109.324 283.605,108.79 285.208,108.547 C285.305,108.255 285.402,108.012 285.548,107.77 C285.645,107.624 285.743,107.478 285.84,107.381 C285.888,107.332 285.985,107.235 286.034,107.187 C285.5,105.195 285.402,102.378 286.034,100.192 C286.034,100.192 286.034,100.192 286.034,100.192 C284.965,99.22 284.771,97.617 285.548,96.402 C286.083,95.528 287.054,94.994 288.074,95.042 C288.657,95.042 289.192,95.188 289.677,95.48 C290.357,95.917 290.843,96.597 290.989,97.325 C291.183,98.103 290.989,98.88 290.6,99.56 C290.066,100.434 289.094,100.969 288.074,100.92 C288.026,100.92 287.977,100.92 287.929,100.92 C287.443,102.62 287.588,104.855 287.929,106.409 Z" />
            <path d="M276.416,103.106 C276.901,103.398 277.533,103.252 277.824,102.766 C278.116,102.28 277.97,101.649 277.484,101.357 C276.999,101.066 276.367,101.212 276.076,101.697 C275.784,102.183 275.93,102.815 276.416,103.106 C276.416,103.106 276.416,103.106 276.416,103.106 Z" />
            <path d="M278.359,90.282 C278.019,90.282 277.679,90.476 277.484,90.768 C277.193,91.205 277.29,91.836 277.776,92.176 L277.776,92.176 C278.262,92.516 278.893,92.371 279.185,91.885 L279.185,91.885 C279.282,91.739 279.33,91.545 279.33,91.35 C279.33,90.768 278.893,90.33 278.31,90.33 Z" />
            <path d="M249.892,99.56 C247.658,101.6 246.249,104.563 245.666,108.061 C245.569,108.741 245.472,109.616 245.472,110.539 C245.618,109.616 246.298,108.935 247.124,108.935 L248.046,108.935 C248.969,108.935 249.747,109.81 249.747,110.879 L249.747,125.306 C249.747,126.375 248.969,127.249 248.046,127.249 L247.124,127.249 C246.201,127.249 245.423,126.375 245.423,125.306 L245.423,124.529 C245.278,124.529 245.132,124.577 244.986,124.577 L244.015,124.577 C242.946,124.577 242.071,123.703 242.071,122.634 L242.071,113.842 C242.071,112.87 242.8,112.044 243.723,111.947 C243.626,106.264 245.423,101.455 248.727,98.346 C251.836,95.48 256.79,93.731 261.697,93.731 C266.603,93.731 263.203,93.731 263.786,93.828 L263.786,76 L234.153,93.002 L234.153,128.949 L263.786,145.951 L263.786,95.48 C263.3,95.48 262.231,95.431 261.697,95.431 C257.276,95.431 252.613,97.083 249.844,99.609 Z M253.584,119.768 C253.487,119.963 253.293,120.06 253.05,120.06 C252.71,120.06 252.467,119.768 252.467,119.477 C252.467,119.38 252.467,119.282 252.564,119.185 C252.953,118.554 252.953,117.728 252.661,117.048 C252.516,116.756 252.661,116.416 252.953,116.271 C253.244,116.173 253.584,116.271 253.681,116.562 C254.167,117.582 254.119,118.797 253.536,119.768 Z M256.645,120.545 C256.499,120.788 256.353,121.08 256.207,121.274 C256.11,121.42 255.916,121.517 255.722,121.517 C255.625,121.517 255.479,121.517 255.382,121.42 C255.139,121.226 255.042,120.885 255.236,120.594 C255.382,120.4 255.479,120.205 255.576,120.011 C256.256,118.602 256.159,116.951 255.333,115.639 C255.139,115.348 255.236,115.008 255.527,114.813 C255.819,114.619 256.159,114.716 256.353,115.008 C257.422,116.659 257.519,118.748 256.645,120.497 Z M259.608,121.566 C259.414,121.954 259.171,122.343 258.928,122.683 C258.831,122.829 258.636,122.926 258.442,122.926 C258.102,122.926 257.859,122.683 257.859,122.343 C257.859,122.197 257.859,122.1 257.956,122.003 C258.199,121.711 258.393,121.371 258.539,121.031 C259.608,118.845 259.365,116.271 257.908,114.328 C257.713,114.085 257.762,113.696 258.005,113.502 C258.248,113.307 258.636,113.356 258.831,113.599 C260.531,115.882 260.822,118.991 259.559,121.566 Z" />
            <path d="M244.986,114.036 C244.257,114.036 243.675,114.619 243.675,115.348 L243.675,121.177 C243.675,121.906 244.257,122.44 244.986,122.44 L245.423,122.44 L245.423,114.036 L244.986,114.036 Z" />
            <path d="M263.786,95.48 L263.786,95.48 L263.786,93.779 L263.786,93.779 L263.786,95.48 Z" />
        </g>
        <g id="Regular-S">
            <path d="M480.059,128.464 C479.816,128.464 479.573,128.561 479.379,128.706 C478.942,129.095 478.893,129.727 479.282,130.164 C479.67,130.601 480.302,130.65 480.739,130.261 C480.933,130.067 481.079,129.824 481.079,129.581 C481.079,129.581 481.079,129.532 481.079,129.484 C481.079,128.901 480.642,128.464 480.059,128.464 Z" />
            <path d="M487.346,108.887 C487.054,109.324 487.151,109.956 487.637,110.247 L487.637,110.247 C488.123,110.587 488.754,110.441 489.046,109.956 C489.192,109.713 489.24,109.47 489.192,109.178 C489.143,108.887 488.949,108.693 488.754,108.547 C488.609,108.45 488.414,108.401 488.22,108.401 C487.88,108.401 487.54,108.595 487.346,108.887 Z" />
            <path d="M489.094,98.588 C489.24,98.346 489.289,98.103 489.24,97.811 C489.192,97.52 488.997,97.325 488.803,97.18 C488.657,97.083 488.463,97.034 488.269,97.034 C487.929,97.034 487.589,97.228 487.394,97.52 C487.103,97.957 487.2,98.588 487.686,98.929 L487.686,98.929 C488.171,99.269 488.803,99.123 489.094,98.637 Z" />
            <path d="M474.958,120.788 C475.104,120.885 475.298,120.934 475.493,120.934 C475.833,120.934 476.173,120.74 476.367,120.448 C476.659,119.963 476.513,119.331 476.027,119.04 C475.541,118.748 474.91,118.894 474.618,119.38 C474.473,119.622 474.424,119.914 474.521,120.157 C474.57,120.4 474.764,120.643 475.007,120.788 Z" />
            <path d="M487.637,123.071 L487.637,123.071 C488.123,123.412 488.754,123.266 489.046,122.78 C489.192,122.537 489.24,122.294 489.192,122.003 C489.143,121.711 488.949,121.517 488.754,121.371 C488.609,121.274 488.414,121.226 488.22,121.226 C487.88,121.226 487.54,121.42 487.346,121.711 L487.346,121.711 C487.054,122.149 487.151,122.78 487.637,123.12 Z" />
            <path d="M466.214,76 L466.214,93.974 C467.575,94.071 469.275,94.314 471.072,95.091 C471.655,95.091 474.133,94.994 475.881,93.002 C475.201,92.031 475.153,90.719 475.833,89.699 C476.367,88.824 477.339,88.29 478.359,88.339 C478.942,88.339 479.476,88.484 479.962,88.776 C480.642,89.213 481.128,89.893 481.273,90.622 C481.468,91.399 481.273,92.176 480.885,92.856 C480.35,93.731 479.379,94.265 478.359,94.217 C478.067,94.217 477.776,94.217 477.484,94.071 C476.319,95.431 474.91,96.16 473.695,96.548 C474.667,97.277 475.541,98.2 476.27,99.269 C477.047,99.074 477.873,99.22 478.553,99.657 C479.962,100.532 480.35,102.378 479.476,103.786 C478.942,104.661 477.97,105.195 476.95,105.195 C476.367,105.195 475.833,105.049 475.347,104.709 C473.987,103.835 473.55,101.989 474.424,100.629 C474.473,100.532 474.521,100.434 474.618,100.386 C473.501,98.88 472.092,97.714 470.441,96.985 C470.441,96.985 470.441,96.985 470.441,96.985 C468.886,96.305 467.38,96.014 466.214,95.965 L466.214,146 L495.847,128.998 L495.847,93.002 L466.214,76 Z M483.022,129.727 C482.974,130.504 482.585,131.232 482.002,131.767 C481.468,132.253 480.788,132.495 480.059,132.495 C479.282,132.495 478.553,132.204 477.97,131.621 C477.096,131.961 475.59,132.447 474.57,132.447 C473.55,132.447 474.473,132.447 474.424,132.447 C473.452,132.398 472.87,131.961 472.335,131.621 C471.558,131.087 470.829,130.601 468.255,131.281 C467.089,131.815 466.312,131.864 466.214,131.864 L466.214,129.921 C466.457,129.872 466.895,129.775 467.477,129.532 C467.526,129.532 467.575,129.484 467.672,129.435 C469.275,128.658 471.801,126.763 473.793,122.294 C473.258,121.906 472.821,121.274 472.675,120.643 C472.481,119.865 472.578,119.088 473.015,118.408 C473.55,117.534 474.521,116.951 475.59,116.951 C476.124,116.951 476.659,117.096 477.096,117.388 C478.505,118.214 478.942,120.06 478.116,121.468 C477.582,122.343 476.659,122.877 475.687,122.926 C474.424,125.84 472.967,127.832 471.509,129.144 C472.335,129.289 472.967,129.678 473.501,130.018 C473.938,130.31 474.181,130.455 474.57,130.504 C475.104,130.504 476.221,130.212 477.144,129.872 C476.999,128.901 477.387,127.881 478.164,127.249 C478.164,127.249 478.164,127.249 478.164,127.249 C479.427,126.18 481.273,126.326 482.342,127.589 C482.876,128.172 483.119,128.949 483.071,129.775 Z M488.026,106.507 C488.074,106.507 488.123,106.507 488.22,106.507 C488.803,106.507 489.337,106.652 489.823,106.944 C490.503,107.381 490.989,108.061 491.135,108.79 C491.329,109.567 491.135,110.344 490.746,111.024 C490.212,111.899 489.24,112.433 488.22,112.384 C487.589,112.384 487.006,112.19 486.471,111.85 C486.034,111.51 485.645,111.073 485.451,110.587 C484.382,110.781 483.799,111.121 483.071,111.607 C482.488,111.996 481.905,112.384 481.031,112.676 C483.217,114.279 486.18,117.339 487.443,119.38 C488.22,119.185 489.094,119.282 489.774,119.72 C490.455,120.157 490.94,120.837 491.086,121.566 C491.28,122.343 491.086,123.12 490.697,123.8 C490.163,124.675 489.192,125.209 488.171,125.16 C487.589,125.16 487.054,125.015 486.568,124.723 C486.52,124.723 486.471,124.675 486.423,124.626 C485.16,123.703 484.771,121.954 485.645,120.594 C485.645,120.497 485.743,120.448 485.791,120.4 C484.48,118.165 479.865,113.745 478.602,113.453 C476.95,113.065 475.979,113.065 474.764,113.113 C474.084,113.113 473.258,113.162 472.238,113.113 C470.732,113.016 469.906,112.093 469.178,111.267 C468.4,110.393 467.672,109.616 466.069,109.47 L466.069,107.527 C468.595,107.721 469.761,108.984 470.635,109.956 C471.315,110.684 471.655,111.121 472.335,111.121 C473.258,111.17 473.987,111.121 474.667,111.121 C475.493,111.121 476.27,111.073 477.242,111.17 C480.01,111.17 480.933,110.539 481.905,109.858 C482.682,109.324 483.605,108.79 485.208,108.547 C485.305,108.255 485.403,108.012 485.548,107.77 C485.645,107.624 485.743,107.478 485.84,107.381 C485.888,107.332 485.985,107.235 486.034,107.187 C485.5,105.195 485.403,102.378 486.034,100.192 C486.034,100.192 486.034,100.192 486.034,100.192 C484.965,99.22 484.771,97.617 485.548,96.402 C486.083,95.528 487.054,94.994 488.074,95.042 C488.657,95.042 489.192,95.188 489.677,95.48 C490.357,95.917 490.843,96.597 490.989,97.325 C491.183,98.103 490.989,98.88 490.6,99.56 C490.066,100.434 489.094,100.969 488.074,100.92 C488.026,100.92 487.977,100.92 487.929,100.92 C487.443,102.62 487.589,104.855 487.929,106.409 Z" />
            <path d="M476.416,103.106 C476.901,103.398 477.533,103.252 477.824,102.766 C478.116,102.28 477.97,101.649 477.484,101.357 C476.999,101.066 476.367,101.212 476.076,101.697 C475.784,102.183 475.93,102.815 476.416,103.106 C476.416,103.106 476.416,103.106 476.416,103.106 Z" />
            <path d="M478.359,90.282 C478.019,90.282 477.679,90.476 477.484,90.768 C477.193,91.205 477.29,91.836 477.776,92.176 L477.776,92.176 C478.262,92.516 478.893,92.371 479.185,91.885 L479.185,91.885 C479.282,91.739 479.33,91.545 479.33,91.35 C479.33,90.768 478.893,90.33 478.31,90.33 Z" />
            <path d="M449.892,99.56 C447.658,101.6 446.249,104.563 445.666,108.061 C445.569,108.741 445.472,109.616 445.472,110.539 C445.618,109.616 446.298,108.935 447.124,108.935 L448.047,108.935 C448.969,108.935 449.747,109.81 449.747,110.879 L449.747,125.306 C449.747,126.375 448.969,127.249 448.047,127.249 L447.124,127.249 C446.201,127.249 445.423,126.375 445.423,125.306 L445.423,124.529 C445.278,124.529 445.132,124.577 444.986,124.577 L444.015,124.577 C442.946,124.577 442.072,123.703 442.072,122.634 L442.072,113.842 C442.072,112.87 442.8,112.044 443.723,111.947 C443.626,106.264 445.423,101.455 448.727,98.346 C451.836,95.48 456.79,93.731 461.697,93.731 C466.603,93.731 463.203,93.731 463.786,93.828 L463.786,76 L434.153,93.002 L434.153,128.949 L463.786,145.951 L463.786,95.48 C463.3,95.48 462.231,95.431 461.697,95.431 C457.276,95.431 452.613,97.083 449.844,99.609 Z M453.584,119.768 C453.487,119.963 453.293,120.06 453.05,120.06 C452.71,120.06 452.467,119.768 452.467,119.477 C452.467,119.38 452.467,119.282 452.564,119.185 C452.953,118.554 452.953,117.728 452.661,117.048 C452.516,116.756 452.661,116.416 452.953,116.271 C453.244,116.173 453.584,116.271 453.681,116.562 C454.167,117.582 454.119,118.797 453.536,119.768 Z M456.645,120.545 C456.499,120.788 456.353,121.08 456.208,121.274 C456.11,121.42 455.916,121.517 455.722,121.517 C455.625,121.517 455.479,121.517 455.382,121.42 C455.139,121.226 455.042,120.885 455.236,120.594 C455.382,120.4 455.479,120.205 455.576,120.011 C456.256,118.602 456.159,116.951 455.333,115.639 C455.139,115.348 455.236,115.008 455.527,114.813 C455.819,114.619 456.159,114.716 456.353,115.008 C457.422,116.659 457.519,118.748 456.645,120.497 Z M459.608,121.566 C459.414,121.954 459.171,122.343 458.928,122.683 C458.831,122.829 458.636,122.926 458.442,122.926 C458.102,122.926 457.859,122.683 457.859,122.343 C457.859,122.197 457.859,122.1 457.956,122.003 C458.199,121.711 458.393,121.371 458.539,121.031 C459.608,118.845 459.365,116.271 457.908,114.328 C457.713,114.085 457.762,113.696 458.005,113.502 C458.248,113.307 458.636,113.356 458.831,113.599 C460.531,115.882 460.822,118.991 459.559,121.566 Z" />
            <path d="M444.986,114.036 C444.257,114.036 443.675,114.619 443.675,115.348 L443.675,121.177 C443.675,121.906 444.257,122.44 444.986,122.44 L445.423,122.44 L445.423,114.036 L444.986,114.036 Z" />
            <path d="M463.786,95.48 L463.786,95.48 L463.786,93.779 L463.786,93.779 L463.786,95.48 Z" />
        </g>
        <g id="Black-S">
            <path d="M680.059,128.464 C679.816,128.464 679.573,128.561 679.379,128.706 C678.942,129.095 678.893,129.727 679.282,130.164 C679.67,130.601 680.302,130.65 680.739,130.261 C680.933,130.067 681.079,129.824 681.079,129.581 C681.079,129.581 681.079,129.532 681.079,129.484 C681.079,128.901 680.642,128.464 680.059,128.464 Z" />
            <path d="M687.346,108.887 C687.054,109.324 687.151,109.956 687.637,110.247 L687.637,110.247 C688.123,110.587 688.754,110.441 689.046,109.956 C689.192,109.713 689.24,109.47 689.192,109.178 C689.143,108.887 688.949,108.693 688.754,108.547 C688.609,108.45 688.414,108.401 688.22,108.401 C687.88,108.401 687.54,108.595 687.346,108.887 Z" />
            <path d="M689.094,98.588 C689.24,98.346 689.289,98.103 689.24,97.811 C689.192,97.52 688.997,97.325 688.803,97.18 C688.657,97.083 688.463,97.034 688.269,97.034 C687.929,97.034 687.589,97.228 687.394,97.52 C687.103,97.957 687.2,98.588 687.686,98.929 L687.686,98.929 C688.171,99.269 688.803,99.123 689.094,98.637 Z" />
            <path d="M674.958,120.788 C675.104,120.885 675.298,120.934 675.493,120.934 C675.833,120.934 676.173,120.74 676.367,120.448 C676.659,119.963 676.513,119.331 676.027,119.04 C675.541,118.748 674.91,118.894 674.618,119.38 C674.473,119.622 674.424,119.914 674.521,120.157 C674.57,120.4 674.764,120.643 675.007,120.788 Z" />
            <path d="M687.637,123.071 L687.637,123.071 C688.123,123.412 688.754,123.266 689.046,122.78 C689.192,122.537 689.24,122.294 689.192,122.003 C689.143,121.711 688.949,121.517 688.754,121.371 C688.609,121.274 688.414,121.226 688.22,121.226 C687.88,121.226 687.54,121.42 687.346,121.711 L687.346,121.711 C687.054,122.149 687.151,122.78 687.637,123.12 Z" />
            <path d="M666.214,76 L666.214,93.974 C667.575,94.071 669.275,94.314 671.072,95.091 C671.655,95.091 674.133,94.994 675.881,93.002 C675.201,92.031 675.153,90.719 675.833,89.699 C676.367,88.824 677.339,88.29 678.359,88.339 C678.942,88.339 679.476,88.484 679.962,88.776 C680.642,89.213 681.128,89.893 681.273,90.622 C681.468,91.399 681.273,92.176 680.885,92.856 C680.35,93.731 679.379,94.265 678.359,94.217 C678.067,94.217 677.776,94.217 677.484,94.071 C676.319,95.431 674.91,96.16 673.695,96.548 C674.667,97.277 675.541,98.2 676.27,99.269 C677.047,99.074 677.873,99.22 678.553,99.657 C679.962,100.532 680.35,102.378 679.476,103.786 C678.942,104.661 677.97,105.195 676.95,105.195 C676.367,105.195 675.833,105.049 675.347,104.709 C673.987,103.835 673.55,101.989 674.424,100.629 C674.473,100.532 674.521,100.434 674.618,100.386 C673.501,98.88 672.092,97.714 670.441,96.985 C670.441,96.985 670.441,96.985 670.441,96.985 C668.886,96.305 667.38,96.014 666.214,95.965 L666.214,146 L695.847,128.998 L695.847,93.002 L666.214,76 Z M683.022,129.727 C682.974,130.504 682.585,131.232 682.002,131.767 C681.468,132.253 680.788,132.495 680.059,132.495 C679.282,132.495 678.553,132.204 677.97,131.621 C677.096,131.961 675.59,132.447 674.57,132.447 C673.55,132.447 674.473,132.447 674.424,132.447 C673.452,132.398 672.87,131.961 672.335,131.621 C671.558,131.087 670.829,130.601 668.255,131.281 C667.089,131.815 666.312,131.864 666.214,131.864 L666.214,129.921 C666.457,129.872 666.895,129.775 667.477,129.532 C667.526,129.532 667.575,129.484 667.672,129.435 C669.275,128.658 671.801,126.763 673.793,122.294 C673.258,121.906 672.821,121.274 672.675,120.643 C672.481,119.865 672.578,119.088 673.015,118.408 C673.55,117.534 674.521,116.951 675.59,116.951 C676.124,116.951 676.659,117.096 677.096,117.388 C678.505,118.214 678.942,120.06 678.116,121.468 C677.582,122.343 676.659,122.877 675.687,122.926 C674.424,125.84 672.967,127.832 671.509,129.144 C672.335,129.289 672.967,129.678 673.501,130.018 C673.938,130.31 674.181,130.455 674.57,130.504 C675.104,130.504 676.221,130.212 677.144,129.872 C676.999,128.901 677.387,127.881 678.164,127.249 C678.164,127.249 678.164,127.249 678.164,127.249 C679.427,126.18 681.273,126.326 682.342,127.589 C682.876,128.172 683.119,128.949 683.071,129.775 Z M688.026,106.507 C688.074,106.507 688.123,106.507 688.22,106.507 C688.803,106.507 689.337,106.652 689.823,106.944 C690.503,107.381 690.989,108.061 691.135,108.79 C691.329,109.567 691.135,110.344 690.746,111.024 C690.212,111.899 689.24,112.433 688.22,112.384 C687.589,112.384 687.006,112.19 686.471,111.85 C686.034,111.51 685.645,111.073 685.451,110.587 C684.382,110.781 683.799,111.121 683.071,111.607 C682.488,111.996 681.905,112.384 681.031,112.676 C683.217,114.279 686.18,117.339 687.443,119.38 C688.22,119.185 689.094,119.282 689.774,119.72 C690.455,120.157 690.94,120.837 691.086,121.566 C691.28,122.343 691.086,123.12 690.697,123.8 C690.163,124.675 689.192,125.209 688.171,125.16 C687.589,125.16 687.054,125.015 686.568,124.723 C686.52,124.723 686.471,124.675 686.423,124.626 C685.16,123.703 684.771,121.954 685.645,120.594 C685.645,120.497 685.743,120.448 685.791,120.4 C684.48,118.165 679.865,113.745 678.602,113.453 C676.95,113.065 675.979,113.065 674.764,113.113 C674.084,113.113 673.258,113.162 672.238,113.113 C670.732,113.016 669.906,112.093 669.178,111.267 C668.4,110.393 667.672,109.616 666.069,109.47 L666.069,107.527 C668.595,107.721 669.761,108.984 670.635,109.956 C671.315,110.684 671.655,111.121 672.335,111.121 C673.258,111.17 673.987,111.121 674.667,111.121 C675.493,111.121 676.27,111.073 677.242,111.17 C680.01,111.17 680.933,110.539 681.905,109.858 C682.682,109.324 683.605,108.79 685.208,108.547 C685.305,108.255 685.403,108.012 685.548,107.77 C685.645,107.624 685.743,107.478 685.84,107.381 C685.888,107.332 685.985,107.235 686.034,107.187 C685.5,105.195 685.403,102.378 686.034,100.192 C686.034,100.192 686.034,100.192 686.034,100.192 C684.965,99.22 684.771,97.617 685.548,96.402 C686.083,95.528 687.054,94.994 688.074,95.042 C688.657,95.042 689.192,95.188 689.677,95.48 C690.357,95.917 690.843,96.597 690.989,97.325 C691.183,98.103 690.989,98.88 690.6,99.56 C690.066,100.434 689.094,100.969 688.074,100.92 C688.026,100.92 687.977,100.92 687.929,100.92 C687.443,102.62 687.589,104.855 687.929,106.409 Z" />
            <path d="M676.416,103.106 C676.901,103.398 677.533,103.252 677.824,102.766 C678.116,102.28 677.97,101.649 677.484,101.357 C676.999,101.066 676.367,101.212 676.076,101.697 C675.784,102.183 675.93,102.815 676.416,103.106 C676.416,103.106 676.416,103.106 676.416,103.106 Z" />
            <path d="M678.359,90.282 C678.019,90.282 677.679,90.476 677.484,90.768 C677.193,91.205 677.29,91.836 677.776,92.176 L677.776,92.176 C678.262,92.516 678.893,92.371 679.185,91.885 L679.185,91.885 C679.282,91.739 679.33,91.545 679.33,91.35 C679.33,90.768 678.893,90.33 678.31,90.33 Z" />
            <path d="M649.892,99.56 C647.658,101.6 646.249,104.563 645.666,108.061 C645.569,108.741 645.472,109.616 645.472,110.539 C645.618,109.616 646.298,108.935 647.124,108.935 L648.047,108.935 C648.969,108.935 649.747,109.81 649.747,110.879 L649.747,125.306 C649.747,126.375 648.969,127.249 648.047,127.249 L647.124,127.249 C646.201,127.249 645.423,126.375 645.423,125.306 L645.423,124.529 C645.278,124.529 645.132,124.577 644.986,124.577 L644.015,124.577 C642.946,124.577 642.071,123.703 642.071,122.634 L642.071,113.842 C642.071,112.87 642.8,112.044 643.723,111.947 C643.626,106.264 645.423,101.455 648.727,98.346 C651.836,95.48 656.79,93.731 661.697,93.731 C666.603,93.731 663.203,93.731 663.786,93.828 L663.786,76 L634.153,93.002 L634.153,128.949 L663.786,145.951 L663.786,95.48 C663.3,95.48 662.231,95.431 661.697,95.431 C657.276,95.431 652.613,97.083 649.844,99.609 Z M653.584,119.768 C653.487,119.963 653.293,120.06 653.05,120.06 C652.71,120.06 652.467,119.768 652.467,119.477 C652.467,119.38 652.467,119.282 652.564,119.185 C652.953,118.554 652.953,117.728 652.661,117.048 C652.516,116.756 652.661,116.416 652.953,116.271 C653.244,116.173 653.584,116.271 653.681,116.562 C654.167,117.582 654.119,118.797 653.536,119.768 Z M656.645,120.545 C656.499,120.788 656.353,121.08 656.208,121.274 C656.11,121.42 655.916,121.517 655.722,121.517 C655.625,121.517 655.479,121.517 655.382,121.42 C655.139,121.226 655.042,120.885 655.236,120.594 C655.382,120.4 655.479,120.205 655.576,120.011 C656.256,118.602 656.159,116.951 655.333,115.639 C655.139,115.348 655.236,115.008 655.527,114.813 C655.819,114.619 656.159,114.716 656.353,115.008 C657.422,116.659 657.519,118.748 656.645,120.497 Z M659.608,121.566 C659.414,121.954 659.171,122.343 658.928,122.683 C658.831,122.829 658.636,122.926 658.442,122.926 C658.102,122.926 657.859,122.683 657.859,122.343 C657.859,122.197 657.859,122.1 657.956,122.003 C658.199,121.711 658.393,121.371 658.539,121.031 C659.608,118.845 659.365,116.271 657.908,114.328 C657.713,114.085 657.762,113.696 658.005,113.502 C658.248,113.307 658.636,113.356 658.831,113.599 C660.531,115.882 660.822,118.991 659.559,121.566 Z" />
            <path d="M644.986,114.036 C644.257,114.036 643.675,114.619 643.675,115.348 L643.675,121.177 C643.675,121.906 644.257,122.44 644.986,122.44 L645.423,122.44 L645.423,114.036 L644.986,114.036 Z" />
            <path d="M663.786,95.48 L663.786,95.48 L663.786,93.779 L663.786,93.779 L663.786,95.48 Z" />
        </g>
    </g>
</svg>