<?xml version="1.0" encoding="UTF-8"?>
<svg height="600" width="800" xmlns="http://www.w3.org/2000/svg" xmlns:xlink="http://www.w3.org/1999/xlink">
    <g id="Notes" font-family="'LucidaGrande', 'Lucida Grande', sans-serif" font-size="13">
        <rect fill="white" height="600.0" width="800.0" x="0.0" y="0.0" />
        <g font-size="13">
            <text x="18.0" y="176.0">Small</text>
            <text x="18.0" y="376.0">Medium</text>
            <text x="18.0" y="576.0">Large</text>
        </g>
        <g font-size="9">
            <text x="250.0" y="30.0">Ultralight</text>
            <text x="450.0" y="30.0">Regular</text>
            <text x="650.0" y="30.0">Black</text>
            <text id="template-version" fill="#505050" text-anchor="end" x="785.0" y="575.0">Template v.3.0</text>
            <a href="https://wangchujiang.com/#/app">
                <text fill="#505050" text-anchor="end" x="785.0" y="590.0">https://wangchujiang.com/#/app</text>
            </a>
        </g>
    </g>
    <g id="Guides" stroke="rgb(39, 170, 225)" stroke-width="0.5">
        <path id="Capline-S" d="M18,76 l800,0" />
        <path id="H-reference" d="M85,145.755 L87.685,145.755 L113.369,79.287 L114.052,79.287 L114.052,76 L112.148,76 L85,145.755 Z M95.693,121.536 L130.996,121.536 L130.263,119.313 L96.474,119.313 L95.693,121.536 Z M139.15,145.755 L141.787,145.755 L114.638,76 L113.466,76 L113.466,79.287 L139.15,145.755 Z" stroke="none" />
        <path id="Baseline-S" d="M18,146 l800,0" />
        <path id="left-margin-Ultralight-S" d="M211,56 l0,110" />
        <path id="right-margin-Ultralight-S" d="M319,56 l0,110" />
        <path id="left-margin-Regular-S" d="M411,56 l0,110" />
        <path id="right-margin-Regular-S" d="M519,56 l0,110" />
        <path id="left-margin-Black-S" d="M611,56 l0,110" />
        <path id="right-margin-Black-S" d="M719,56 l0,110" />
        <path id="Capline-M" d="M18,276 l800,0" />
        <path id="Baseline-M" d="M18,346 l800,0" />
        <path id="Capline-L" d="M18,476 l800,0" />
        <path id="Baseline-L" d="M18,546 l800,0" />
    </g>
    <g id="Symbols">
        <g id="Ultralight-S">
            <path d="M259.809,130.095 L256.578,121.33 C256.578,121.33 251.336,127.173 243.481,127.173 C236.52,127.173 231.587,121.123 231.587,111.447 C231.587,99.055 237.844,94.62 243.98,94.62 C255.409,94.62 256.836,103.781 261.322,117.806 C264.553,127.586 270.603,135.441 288.031,135.441 C300.527,135.441 309,131.608 309,121.536 C309,109.006 298.223,107.683 289.234,105.706 C284.8,104.692 283.494,102.888 283.494,99.863 C283.494,96.442 286.209,94.414 290.644,94.414 C295.491,94.414 298.103,96.236 298.498,100.567 L308.57,99.364 C307.763,90.289 301.506,86.559 291.228,86.559 C282.153,86.559 273.284,89.98 273.284,100.98 C273.284,107.838 276.619,112.169 284.972,114.18 C292.689,116.002 298.688,116.552 298.688,122.034 C298.688,125.764 295.061,127.277 288.203,127.277 C278.028,127.277 273.783,121.931 271.377,114.575 C265.877,97.938 263.883,86.559 243.653,86.559 C228.855,86.559 221,95.927 221,111.859 C221,127.173 228.855,135.441 242.983,135.441 C254.361,135.441 259.809,130.095 259.809,130.095 Z" />
        </g>
        <g id="Regular-S">
            <path d="M459.809,130.095 L456.578,121.33 C456.578,121.33 451.336,127.173 443.481,127.173 C436.52,127.173 431.587,121.123 431.587,111.447 C431.587,99.055 437.844,94.62 443.98,94.62 C455.409,94.62 456.836,103.781 461.322,117.806 C464.553,127.586 470.603,135.441 488.031,135.441 C500.527,135.441 509,131.608 509,121.536 C509,109.006 498.223,107.683 489.234,105.706 C484.8,104.692 483.494,102.888 483.494,99.863 C483.494,96.442 486.209,94.414 490.644,94.414 C495.491,94.414 498.103,96.236 498.498,100.567 L508.57,99.364 C507.763,90.289 501.506,86.559 491.228,86.559 C482.153,86.559 473.284,89.98 473.284,100.98 C473.284,107.838 476.619,112.169 484.972,114.18 C492.689,116.002 498.688,116.552 498.688,122.034 C498.688,125.764 495.061,127.277 488.203,127.277 C478.028,127.277 473.783,121.931 471.377,114.575 C465.877,97.938 463.883,86.559 443.653,86.559 C428.855,86.559 421,95.927 421,111.859 C421,127.173 428.855,135.441 442.983,135.441 C454.361,135.441 459.809,130.095 459.809,130.095 Z" />
        </g>
        <g id="Black-S">
            <path d="M659.809,130.095 L656.578,121.33 C656.578,121.33 651.336,127.173 643.481,127.173 C636.52,127.173 631.588,121.123 631.588,111.447 C631.588,99.055 637.844,94.62 643.98,94.62 C655.409,94.62 656.836,103.781 661.322,117.806 C664.553,127.586 670.603,135.441 688.031,135.441 C700.527,135.441 709,131.608 709,121.536 C709,109.006 698.223,107.683 689.234,105.706 C684.8,104.692 683.494,102.888 683.494,99.863 C683.494,96.442 686.209,94.414 690.644,94.414 C695.491,94.414 698.103,96.236 698.498,100.567 L708.57,99.364 C707.763,90.289 701.506,86.559 691.228,86.559 C682.153,86.559 673.284,89.98 673.284,100.98 C673.284,107.838 676.619,112.169 684.972,114.18 C692.689,116.002 698.688,116.552 698.688,122.034 C698.688,125.764 695.061,127.277 688.203,127.277 C678.028,127.277 673.783,121.931 671.377,114.575 C665.877,97.938 663.883,86.559 643.653,86.559 C628.855,86.559 621,95.927 621,111.859 C621,127.173 628.855,135.441 642.983,135.441 C654.361,135.441 659.809,130.095 659.809,130.095 Z" />
        </g>
    </g>
</svg>